HIERARCHY
ROOT root
{
	OFFSET	0	13.1	24.9
	CHANNELS 6  Xposition Yposition Zposition Xrotation Yrotation Zrotation
	JOINT spine_1
	{
		OFFSET	0	9.99999	0
		CHANNELS 3  Xrotation Yrotation Zrotation
		JOINT spine_2
		{
			OFFSET	0	112	-10
			CHANNELS 3  Xrotation Yrotation Zrotation
			JOINT spine_3
			{
				OFFSET	0	206.5	19.3
				CHANNELS 3  Xrotation Yrotation Zrotation
				JOINT spine_4
				{
					OFFSET	0	110.4	14.6
					CHANNELS 3  Xrotation Yrotation Zrotation
					JOINT neck_1
					{
						OFFSET	0	71.8	-50.3
						CHANNELS 3  Xrotation Yrotation Zrotation
						JOINT neck_2
						{
							OFFSET	0	86.2	-25.8
							CHANNELS 3  Xrotation Yrotation Zrotation
							JOINT head_ee
							{
								OFFSET	0	179.8	-8.7
								CHANNELS 3  Xrotation Yrotation Zrotation
								End Site
								{
									OFFSET	1	0	0
								}
							}
						}
					}
					JOINT left_clavicle
					{
						OFFSET	-43.2	22.4	-70.8
						CHANNELS 3  Xrotation Yrotation Zrotation
						JOINT left_shoulder
						{
							OFFSET	-93.9	-5.79999	48.7
							CHANNELS 3  Xrotation Yrotation Zrotation
							JOINT left_elbow
							{
								OFFSET	-291.4	-30.8	15.2
								CHANNELS 3  Xrotation Yrotation Zrotation
								JOINT left_lowarm_twist
								{
									OFFSET	-110.7	-3.89999	13.6
									CHANNELS 3  Xrotation Yrotation Zrotation
									JOINT left_hand
									{
										OFFSET	-110.7	-3.89999	13.6
										CHANNELS 3  Xrotation Yrotation Zrotation
										JOINT left_ee
										{
											OFFSET	-80.8	-5.10001	12.1
											CHANNELS 3  Xrotation Yrotation Zrotation
											End Site
											{
												OFFSET	1	0	0
											}
										}
									}
								}
							}
						}
					}
					JOINT right_clavicle
					{
						OFFSET	43.2	22.4	-70.8
						CHANNELS 3  Xrotation Yrotation Zrotation
						JOINT right_shoulder
						{
							OFFSET	93.9	-5.79999	48.7
							CHANNELS 3  Xrotation Yrotation Zrotation
							JOINT right_elbow
							{
								OFFSET	291.4	-30.8	15.2
								CHANNELS 3  Xrotation Yrotation Zrotation
								JOINT right_lowarm_twist
								{
									OFFSET	110.7	-3.89999	13.6
									CHANNELS 3  Xrotation Yrotation Zrotation
									JOINT right_hand
									{
										OFFSET	110.7	-3.89999	13.6
										CHANNELS 3  Xrotation Yrotation Zrotation
										JOINT right_ee
										{
											OFFSET	80.8	-5.10001	12.1
											CHANNELS 3  Xrotation Yrotation Zrotation
											End Site
											{
												OFFSET	1	0	0
											}
										}
									}
								}
							}
						}
					}
				}
			}
		}
	}
	JOINT left_hip
	{
		OFFSET	-82.8	-127.5	0.300001
		CHANNELS 3  Xrotation Yrotation Zrotation
		JOINT left_knee
		{
			OFFSET	-28.2	-396.7	2.2
			CHANNELS 3  Xrotation Yrotation Zrotation
			JOINT left_ankle
			{
				OFFSET	-11.7	-411.3	35.4
				CHANNELS 3  Xrotation Yrotation Zrotation
				JOINT left_toes
				{
					OFFSET	0	-60	-88.6
					CHANNELS 3  Xrotation Yrotation Zrotation
					JOINT left_foot_ee
					{
						OFFSET	-22.5	-16.5	-42.2
						CHANNELS 3  Xrotation Yrotation Zrotation
						End Site
						{
							OFFSET	1	0	0
						}
					}
				}
			}
		}
	}
	JOINT right_hip
	{
		OFFSET	82.8	-127.5	0.300001
		CHANNELS 3  Xrotation Yrotation Zrotation
		JOINT right_knee
		{
			OFFSET	28.2	-396.7	2.2
			CHANNELS 3  Xrotation Yrotation Zrotation
			JOINT right_ankle
			{
				OFFSET	11.7	-411.3	35.4
				CHANNELS 3  Xrotation Yrotation Zrotation
				JOINT right_toes
				{
					OFFSET	0	-60	-88.6
					CHANNELS 3  Xrotation Yrotation Zrotation
					JOINT right_foot_ee
					{
						OFFSET	22.5	-16.5	-42.2
						CHANNELS 3  Xrotation Yrotation Zrotation
						End Site
						{
							OFFSET	1	0	0
						}
					}
				}
			}
		}
	}
}
MOTION
Frames: 9
Frame Time: 0.02
1372.05 701.618 -1475.22 -5.78300372692 36.5006320009 4.52702819298 1.82417 -0.161397 -1.03307 1.82476 -0.0953372 -1.04124 1.82651 0.0924931 -1.0415 1.825 -0.0731441 -1.04304 -3.42068 0.535194 1.82411 -3.41099 -0.436864 1.96974 -0.0 0.0 -0.0 10.0619 -7.79678 19.9814 7.4927 -22.079 54.6987 1.97606 -44.3838 0.806157 -14.4256 -0.725372 1.69102 1.44884 -17.5164 2.22603 -0.0 0.0 -0.0 9.98314 2.36459 -19.7176 -26.1467 -1.9541 -63.4443 0.289719 8.1674 -0.0206845 -27.6089 1.73979 -3.03643 1.09151 25.7713 3.82398 0.0 0.0 0.0 -0.234006 1.63797 2.66916 -12.6214 0.310572 1.90813 26.5687 17.4365 -3.57501 39.146 -0.0 -0.0 -0.0 0.0 -0.0 34.9292 6.65007 -1.92287 -4.34052 -0.154218 -0.648129 -0.0801439 -5.6723 -0.0117441 -2.59136 0.0 0.0 0.0 0.0 0.0 
1325.54932298 701.554 -1534.66243196 -2.49747844024 37.7282405757 2.13625681426 1.33133 -0.214011 -1.37206 1.33237 -0.126278 -1.3829 1.33559 0.135032 -1.38207 1.33293 -0.0849135 -1.38605 -4.14942 0.53041 2.49016 -4.13093 -0.931954 2.64492 -0.0 0.0 -0.0 9.41452 -7.57797 18.5848 4.62774 -21.0862 58.7949 1.76051 -41.0882 0.659817 -11.5779 -0.548699 1.37234 2.18487 -19.9722 5.99894 -0.0 0.0 -0.0 9.70311 3.70848 -19.1657 -25.4037 -4.6385 -62.9339 0.383684 10.7618 -0.03614 -28.4504 1.81475 -3.114 0.737035 24.6826 5.64404 0.0 0.0 0.0 -2.20847 -0.43296 3.06085 -20.5542 0.288638 3.12411 31.2337 22.094 -4.18132 38.9076 -0.0 -0.0 -0.0 0.0 -0.0 33.224 6.66922 -1.28094 -15.7185 -0.322052 -2.38312 0.909721 -3.85392 0.133252 1.1035 -0.0 -0.0 0.0 0.0 0.0 
1326.43916036 701.554 -1535.34792187 -2.46932688672 36.8762717629 2.0898049029 1.33133 -0.214011 -1.37206 1.33237 -0.126278 -1.3829 1.33559 0.135032 -1.38207 1.33293 -0.0849135 -1.38605 -4.14942 0.53041 2.49016 -4.13093 -0.931954 2.64492 -0.0 0.0 -0.0 9.41452 -7.57797 18.5848 4.62774 -21.0862 58.7949 1.76051 -41.0882 0.659817 -11.5779 -0.548699 1.37234 2.18487 -19.9722 5.99894 -0.0 0.0 -0.0 9.70311 3.70848 -19.1657 -25.4037 -4.6385 -62.9339 0.383684 10.7618 -0.03614 -28.4504 1.81475 -3.114 0.737035 24.6826 5.64404 0.0 0.0 0.0 -2.20847 -0.43296 3.06085 -20.5542 0.288638 3.12411 31.2337 22.094 -4.18132 38.9076 -0.0 -0.0 -0.0 0.0 -0.0 33.224 6.66922 -1.28094 -15.7185 -0.322052 -2.38312 0.909721 -3.85392 0.133252 1.1035 -0.0 -0.0 0.0 0.0 0.0 
1312.57457413 706.976 -1556.81013309 -1.7864142951 36.4700947746 1.55108562583 1.18038 -0.175416 -1.39795 1.18146 -0.086115 -1.40627 1.18378 0.182578 -1.39703 1.18106 -0.040325 -1.40833 -4.07719 0.147891 2.12442 -4.06287 -1.35444 2.20895 -0.0 0.0 -0.0 9.40234 -6.93877 18.5603 1.86369 -20.8406 59.4423 1.66394 -39.4945 0.597362 -11.1139 -0.521423 1.3196 2.27563 -20.3936 6.40234 -0.0 0.0 -0.0 9.79671 3.80357 -19.3654 -24.4817 -3.98612 -62.2986 0.468025 13.0534 -0.0535457 -28.5892 1.82722 -3.12669 0.640885 24.0821 6.01075 0.0 0.0 0.0 -2.01602 -0.696059 3.23454 -22.1751 0.26346 3.37155 31.6907 22.5005 -4.24065 38.7273 -0.0 -0.0 -0.0 0.0 -0.0 32.0902 6.9663 -1.30062 -17.7836 -0.315436 -2.69989 0.760559 -4.00166 0.111423 1.49341 -0.0 -0.0 0.0 0.0 0.0 
1284.61408848 711.54 -1592.49821062 -1.11031635229 35.1625837213 0.19925885708 1.03566 0.148032 -1.16324 1.03638 0.221747 -1.15146 1.03196 0.43936 -1.08721 1.03041 0.262154 -1.14294 -1.38226 0.112497 2.47183 -1.36102 -1.77791 2.63144 -0.0 0.0 -0.0 10.2322 -6.01843 20.336 -2.55959 -21.3161 59.3016 1.13919 -29.4359 0.299251 -11.5636 -0.547852 1.37072 2.20762 -20.3346 5.97897 -0.0 0.0 -0.0 10.1524 6.1192 -20.1654 -21.9807 -2.72818 -60.4025 0.745423 20.2672 -0.133233 -26.9111 1.6785 -2.97128 0.728608 23.7083 5.27462 0.0 0.0 0.0 -0.673186 -1.78109 4.54702 -27.0708 0.14507 4.11329 36.0133 22.321 -4.69633 39.1348 -0.0 -0.0 -0.0 0.0 -0.0 29.9826 6.74451 -0.99439 -20.3503 -0.29131 -3.09294 3.01082 -3.18704 0.438991 2.61425 -0.0 -0.0 0.0 0.0 0.0 
1286.97140197 711.54 -1594.2193675 -1.09514307444 34.0195669102 0.17253328372 1.03566 0.148032 -1.16324 1.03638 0.221747 -1.15146 1.03196 0.43936 -1.08721 1.03041 0.262154 -1.14294 -1.38226 0.112497 2.47183 -1.36102 -1.77791 2.63144 -0.0 0.0 -0.0 10.2322 -6.01843 20.336 -2.55959 -21.3161 59.3016 1.13919 -29.4359 0.299251 -11.5636 -0.547852 1.37072 2.20762 -20.3346 5.97897 -0.0 0.0 -0.0 10.1524 6.1192 -20.1654 -21.9807 -2.72818 -60.4025 0.745423 20.2672 -0.133233 -26.9111 1.6785 -2.97128 0.728608 23.7083 5.27462 0.0 0.0 0.0 -0.673186 -1.78109 4.54702 -27.0708 0.14507 4.11329 36.0133 22.321 -4.69633 39.1348 -0.0 -0.0 -0.0 0.0 -0.0 29.9826 6.74451 -0.99439 -20.3503 -0.29131 -3.09294 3.01082 -3.18704 0.438991 2.61425 -0.0 -0.0 0.0 0.0 0.0 
1261.86841124 720.629 -1625.81415239 -0.183915969825 31.9892020568 -1.32877424299 0.490429 0.354327 -0.860737 0.490749 0.408378 -0.836448 0.484733 0.568888 -0.736744 0.484253 0.445398 -0.817338 -1.29533 0.967071 3.38369 -1.26124 -0.97713 3.70504 -0.0 0.0 -0.0 9.26995 -1.97981 18.2186 -6.59092 -21.1534 61.0283 0.991044 -26.1475 0.23015 -12.1914 -0.585412 1.44172 2.1076 -20.7572 5.11682 -0.0 0.0 -0.0 10.8371 8.53611 -21.6773 -20.8503 -1.4575 -58.7726 0.921763 24.5418 -0.20049 -26.0729 1.60594 -2.89205 0.71821 23.6191 5.30382 0.0 0.0 0.0 3.65185 0.0842515 4.02519 -34.5011 -0.154484 5.2134 38.4717 20.9782 -4.90751 39.451 -0.0 -0.0 -0.0 0.0 -0.0 26.7753 5.65936 -0.58322 -20.8253 -0.284916 -3.16553 2.89502 -2.11325 0.423023 2.96612 -0.0 -0.0 0.0 0.0 0.0 
1266.53878352 720.629 -1629.12245103 -0.180542437788 30.231742151 -1.33530259935 0.490429 0.354327 -0.860737 0.490749 0.408378 -0.836448 0.484733 0.568888 -0.736744 0.484253 0.445398 -0.817338 -1.29533 0.967071 3.38369 -1.26124 -0.97713 3.70504 -0.0 0.0 -0.0 9.26995 -1.97981 18.2186 -6.59092 -21.1534 61.0283 0.991044 -26.1475 0.23015 -12.1914 -0.585412 1.44172 2.1076 -20.7572 5.11682 -0.0 0.0 -0.0 10.8371 8.53611 -21.6773 -20.8503 -1.4575 -58.7726 0.921763 24.5418 -0.20049 -26.0729 1.60594 -2.89205 0.71821 23.6191 5.30382 0.0 0.0 0.0 3.65185 0.0842515 4.02519 -34.5011 -0.154484 5.2134 38.4717 20.9782 -4.90751 39.451 -0.0 -0.0 -0.0 0.0 -0.0 26.7753 5.65936 -0.58322 -20.8253 -0.284916 -3.16553 2.89502 -2.11325 0.423023 2.96612 -0.0 -0.0 0.0 0.0 0.0 
1272.46221754 720.629 -1633.02004696 -0.176756533234 28.0543757368 -1.34307525662 0.490429 0.354327 -0.860737 0.490749 0.408378 -0.836448 0.484733 0.568888 -0.736744 0.484253 0.445398 -0.817338 -1.29533 0.967071 3.38369 -1.26124 -0.97713 3.70504 -0.0 0.0 -0.0 9.26995 -1.97981 18.2186 -6.59092 -21.1534 61.0283 0.991044 -26.1475 0.23015 -12.1914 -0.585412 1.44172 2.1076 -20.7572 5.11682 -0.0 0.0 -0.0 10.8371 8.53611 -21.6773 -20.8503 -1.4575 -58.7726 0.921763 24.5418 -0.20049 -26.0729 1.60594 -2.89205 0.71821 23.6191 5.30382 0.0 0.0 0.0 3.65185 0.0842515 4.02519 -34.5011 -0.154484 5.2134 38.4717 20.9782 -4.90751 39.451 -0.0 -0.0 -0.0 0.0 -0.0 26.7753 5.65936 -0.58322 -20.8253 -0.284916 -3.16553 2.89502 -2.11325 0.423023 2.96612 -0.0 -0.0 0.0 0.0 0.0 
